<svg width="512" height="512" viewBox="0 0 512 512" xmlns="http://www.w3.org/2000/svg">
  <defs>
    <linearGradient id="g1" x1="0" y1="0" x2="1" y2="1">
      <stop offset="0%" stop-color="#47E0F3"/>
      <stop offset="100%" stop-color="#3B5BFF"/>
    </linearGradient>
    <linearGradient id="g2" x1="1" y1="0" x2="0" y2="1">
      <stop offset="0%" stop-color="#3ECBF0"/>
      <stop offset="100%" stop-color="#3A37F5"/>
    </linearGradient>
    <linearGradient id="g3" x1="0" y1="0" x2="1" y2="0">
      <stop offset="0%" stop-color="#42D7F2"/>
      <stop offset="100%" stop-color="#4B46FF"/>
    </linearGradient>
  </defs>

  <!-- light rays -->
  <g stroke="#5BE6FF" stroke-width="14" stroke-linecap="round" opacity="0.95">
    <path d="M256 130 v-24"/>
    <path d="M304 138 l18 -20"/>
    <path d="M208 138 l-18 -20"/>
  </g>

  <!-- top -->
  <polygon points="256,172 380,224 256,276 132,224" fill="#1A1F3C" opacity="0.25"/>
  <polygon points="256,190 352,230 256,270 160,230" fill="url(#g3)"/>

  <!-- sides -->
  <polygon points="132,224 256,276 256,428 132,376" fill="url(#g1)"/>
  <polygon points="256,276 380,224 380,376 256,428" fill="url(#g2)"/>

  <g fill="none" stroke="#79F2FF" stroke-opacity="0.65" stroke-width="3">
    <polygon points="256,172 380,224 380,376 256,428 132,376 132,224"/>
    <polygon points="256,190 352,230 256,270 160,230"/>
  </g>
</svg>
